<?xml version="1.0" encoding="UTF-8" standalone="no"?>
<svg
   xmlns:dc="http://purl.org/dc/elements/1.1/"
   xmlns:cc="http://creativecommons.org/ns#"
   xmlns:rdf="http://www.w3.org/1999/02/22-rdf-syntax-ns#"
   xmlns:svg="http://www.w3.org/2000/svg"
   xmlns="http://www.w3.org/2000/svg"
   xmlns:xlink="http://www.w3.org/1999/xlink"
   xml:space="preserve"
   enable-background="new 0 0 1920 4064.17"
   viewBox="0 0 255 100"
   height="100"
   width="255"
   y="0px"
   x="0px"
   id="Livello_1"
   version="1.0"><metadata
     id="metadata69"><rdf:RDF><cc:Work
         rdf:about=""><dc:format>image/svg+xml</dc:format><dc:type
           rdf:resource="http://purl.org/dc/dcmitype/StillImage" /><dc:title></dc:title></cc:Work></rdf:RDF></metadata><defs
     id="defs67" /><g
     transform="translate(-359.15711,-79.994655)"
     id="g3"><defs
       id="defs5"><rect
         x="0"
         height="4064.167"
         width="1920"
         y="0.003"
         id="SVGID_1_" /></defs><clipPath
       id="SVGID_2_"><use
         height="100%"
         width="100%"
         y="0"
         x="0"
         style="overflow:visible"
         id="use9"
         overflow="visible"
         xlink:href="#SVGID_1_" /></clipPath><path
       style="fill:#c51718"
       id="path11"
       d="m 424.379,119.138 -4.775,3.824 c -0.482,-0.686 -1.021,-1.341 -1.635,-1.959 -2.862,-2.909 -6.456,-4.385 -10.682,-4.385 -4.212,0 -7.813,1.476 -10.701,4.385 -2.9,2.883 -4.369,6.492 -4.369,10.73 0,4.455 1.522,8.16 4.522,11.007 2.994,2.872 6.487,4.327 10.382,4.327 4.244,0 7.877,-1.476 10.798,-4.385 2.117,-2.161 3.465,-4.686 4.048,-7.529 l -13.337,0 0,-7.099 0.082,0 13.151,-0.036 c -10e-4,-0.005 -0.002,-0.009 -0.003,-0.014 l 2.519,0 0,-8.866 z m 10.142,33.934 -9.943,0 0,-7.187 c -0.478,0.559 -0.99,1.102 -1.534,1.63 -4.387,4.272 -9.769,6.437 -15.995,6.437 -5.511,0 -10.522,-1.924 -14.894,-5.718 -3.975,-3.455 -6.333,-7.845 -7.043,-13.083 l -11.801,0 0,17.66 -9.222,0 0,-29.094 c -7.244,18.537 -4.969,37.63 7.487,48.38 17.247,14.891 47.504,8.106 67.573,-15.154 1.505,-1.744 2.908,-3.532 4.212,-5.353 -0.541,0.27 -1.101,0.5 -1.681,0.68 -1.923,0.535 -4.331,0.802 -7.159,0.802 m 9.718,-65.18 c -17.257,-14.891 -47.509,-8.104 -67.572,15.15 -2.089,2.421 -3.982,4.926 -5.684,7.485 l 16.702,0 0,6.886 -14.387,0 -0.225,10.366 12.145,0 c 0.772,-4.374 2.876,-8.265 6.295,-11.598 4.37,-4.278 9.705,-6.448 15.855,-6.448 6.08,0 11.365,2.192 15.706,6.519 0.534,0.528 1.034,1.073 1.503,1.63 l 0,-7.091 6.724,0 c 2.754,0 5.015,0.22 6.719,0.654 1.738,0.454 3.228,1.22 4.426,2.278 1.21,1.104 2.179,2.488 2.882,4.114 0.717,1.64 1.079,3.327 1.079,5.016 0,2.811 -0.998,5.27 -2.965,7.313 1.935,0.819 3.499,2.102 4.654,3.818 1.219,1.769 1.882,3.83 1.986,6.126 9.154,-19.698 7.477,-40.737 -5.843,-52.218 m -4.801,35.053 c 0,-1.768 -0.502,-3.114 -1.491,-4.006 -1.008,-0.907 -2.509,-1.366 -4.46,-1.366 l -1.671,0 0,10.875 1.436,0 c 2.166,0 3.759,-0.469 4.734,-1.396 0.964,-0.898 1.452,-2.28 1.452,-4.107 m -7.622,23.243 3.344,0 c 2.69,0 4.667,-0.52 5.875,-1.543 1.288,-1.107 1.914,-2.464 1.914,-4.151 0,-1.666 -0.602,-3.021 -1.843,-4.141 -1.213,-1.1 -3.445,-1.655 -6.637,-1.655 l -2.653,0 0,11.49 z"
       clip-path="url(#SVGID_2_)" /><polygon
       style="fill:#201d1a"
       id="polygon13"
       points="460.596,133.604 460.596,120.794 469.416,120.794 469.416,123.142 463.786,123.142 463.786,126.002 469.416,126.002 469.416,128.35 463.786,128.35 463.786,133.604 "
       clip-path="url(#SVGID_2_)" /><path
       style="fill:#201d1a"
       id="path15"
       d="m 475.537,124.766 c 1.357,0 2.508,0.396 3.453,1.192 0.943,0.795 1.416,1.904 1.416,3.323 0,1.425 -0.479,2.528 -1.439,3.312 -0.961,0.784 -2.103,1.174 -3.43,1.174 -1.436,0 -2.612,-0.416 -3.524,-1.252 -0.916,-0.835 -1.371,-1.92 -1.371,-3.255 0,-1.357 0.466,-2.445 1.397,-3.266 0.932,-0.818 2.098,-1.228 3.498,-1.228 m 0,7.389 c 1.302,0 1.953,-0.983 1.953,-2.947 0,-1.88 -0.651,-2.821 -1.953,-2.821 -0.623,0 -1.111,0.249 -1.462,0.744 -0.351,0.498 -0.527,1.208 -0.527,2.13 -10e-4,1.932 0.662,2.894 1.989,2.894"
       clip-path="url(#SVGID_2_)" /><path
       style="fill:#201d1a"
       id="path17"
       d="m 484.954,124.948 0,1.229 c 0.801,-0.94 1.738,-1.411 2.814,-1.411 0.899,0 1.65,0.287 2.251,0.862 0.603,0.576 0.904,1.398 0.904,2.469 l 0,5.508 -2.724,0 0,-5.28 c 0,-1.158 -0.449,-1.735 -1.347,-1.735 -0.643,0 -1.275,0.476 -1.898,1.43 l 0,5.585 -2.723,0 0,-8.657 2.723,0 z"
       clip-path="url(#SVGID_2_)" /><path
       style="fill:#201d1a"
       id="path19"
       d="m 501.889,120.795 0,12.81 -2.724,0 0,-0.697 c -0.696,0.573 -1.497,0.861 -2.402,0.861 -1.155,0 -2.119,-0.429 -2.893,-1.284 -0.773,-0.857 -1.16,-1.931 -1.16,-3.223 0,-1.319 0.393,-2.402 1.178,-3.239 0.787,-0.838 1.793,-1.257 3.022,-1.257 0.763,0 1.516,0.182 2.255,0.549 l 0,-4.52 2.724,0 z m -2.724,10.433 0,-4.135 c -0.495,-0.335 -1.002,-0.503 -1.521,-0.503 -0.685,0 -1.219,0.239 -1.6,0.716 -0.383,0.475 -0.573,1.145 -0.573,2.007 0,0.795 0.189,1.432 0.568,1.911 0.379,0.482 0.883,0.721 1.513,0.721 0.556,-0.001 1.093,-0.238 1.613,-0.717"
       clip-path="url(#SVGID_2_)" /><path
       style="fill:#201d1a"
       id="path21"
       d="m 512.965,131.468 0,1.512 c -0.906,0.526 -1.755,0.788 -2.549,0.788 -0.856,0 -1.363,-0.323 -1.522,-0.971 -0.947,0.648 -1.899,0.971 -2.851,0.971 -0.674,0 -1.245,-0.211 -1.715,-0.639 -0.472,-0.423 -0.707,-0.918 -0.707,-1.481 0,-0.753 0.243,-1.359 0.729,-1.822 0.486,-0.463 1.958,-1.059 4.415,-1.787 0.062,-0.965 -0.44,-1.449 -1.503,-1.449 -1.156,0 -2.22,0.484 -3.191,1.449 l 0,-2.219 c 1.137,-0.702 2.387,-1.053 3.75,-1.053 2.444,0 3.668,0.878 3.668,2.634 l 0,3.947 c 0,0.404 0.15,0.607 0.449,0.607 0.226,-0.001 0.569,-0.162 1.027,-0.487 m -4.2,0.033 0,-2.096 c -0.91,0.318 -1.536,0.604 -1.875,0.86 -0.339,0.256 -0.508,0.578 -0.508,0.97 0,0.253 0.085,0.468 0.256,0.648 0.17,0.182 0.379,0.271 0.624,0.271 0.513,0.001 1.013,-0.216 1.503,-0.653"
       clip-path="url(#SVGID_2_)" /><polygon
       style="fill:#201d1a"
       id="polygon23"
       points="513.753,124.948 522.207,124.948 517.774,131.743 522.207,131.743 522.207,133.605 513.323,133.605 517.767,126.808 513.753,126.808 "
       clip-path="url(#SVGID_2_)" /><path
       style="fill:#201d1a"
       id="path25"
       d="m 523.784,122.134 c 0,-0.416 0.147,-0.77 0.44,-1.064 0.294,-0.293 0.646,-0.442 1.055,-0.442 0.415,0 0.771,0.149 1.063,0.442 0.294,0.294 0.44,0.648 0.44,1.064 0,0.408 -0.146,0.762 -0.44,1.059 -0.292,0.296 -0.648,0.444 -1.063,0.444 -0.409,0 -0.761,-0.147 -1.055,-0.444 -0.293,-0.297 -0.44,-0.651 -0.44,-1.059 m 2.871,11.471 -2.724,0 0,-8.657 2.724,0 0,8.657 z"
       clip-path="url(#SVGID_2_)" /><path
       style="fill:#201d1a"
       id="path27"
       d="m 533.43,124.766 c 1.357,0 2.507,0.396 3.451,1.192 0.946,0.795 1.417,1.904 1.417,3.323 0,1.425 -0.479,2.528 -1.439,3.312 -0.96,0.784 -2.103,1.174 -3.429,1.174 -1.437,0 -2.612,-0.416 -3.525,-1.252 -0.914,-0.835 -1.371,-1.92 -1.371,-3.255 0,-1.357 0.466,-2.445 1.397,-3.266 0.933,-0.818 2.099,-1.228 3.499,-1.228 m 0,7.389 c 1.301,0 1.953,-0.983 1.953,-2.947 0,-1.88 -0.652,-2.821 -1.953,-2.821 -0.624,0 -1.111,0.249 -1.463,0.744 -0.351,0.498 -0.527,1.208 -0.527,2.13 0,1.932 0.664,2.894 1.99,2.894"
       clip-path="url(#SVGID_2_)" /><path
       style="fill:#201d1a"
       id="path29"
       d="m 542.846,124.948 0,1.229 c 0.801,-0.94 1.74,-1.411 2.816,-1.411 0.898,0 1.648,0.287 2.251,0.862 0.601,0.576 0.902,1.398 0.902,2.469 l 0,5.508 -2.723,0 0,-5.28 c 0,-1.158 -0.449,-1.735 -1.348,-1.735 -0.641,0 -1.274,0.476 -1.898,1.43 l 0,5.585 -2.722,0 0,-8.657 2.722,0 z"
       clip-path="url(#SVGID_2_)" /><path
       style="fill:#201d1a"
       id="path31"
       d="m 559.516,130.917 0,1.716 c -1.039,0.757 -2.326,1.136 -3.86,1.136 -1.522,0 -2.738,-0.409 -3.649,-1.226 -0.912,-0.815 -1.368,-1.897 -1.368,-3.243 0,-1.321 0.429,-2.408 1.284,-3.259 0.857,-0.851 1.948,-1.275 3.275,-1.275 1.332,0 2.424,0.446 3.277,1.343 0.853,0.895 1.252,2.095 1.197,3.599 l -6.217,0 c 0.055,0.786 0.333,1.388 0.835,1.814 0.5,0.423 1.173,0.633 2.016,0.633 1.021,-0.001 2.091,-0.412 3.21,-1.238 m -6.006,-2.642 3.76,0 c -0.147,-1.259 -0.774,-1.888 -1.881,-1.888 -1.118,0.001 -1.745,0.63 -1.879,1.888"
       clip-path="url(#SVGID_2_)" /><path
       style="fill:#201d1a"
       id="path33"
       d="m 467.5,146.429 4.3,0 0,5.427 c -1.577,0.685 -3.142,1.028 -4.695,1.028 -2.12,0 -3.815,-0.62 -5.084,-1.857 -1.269,-1.238 -1.902,-2.766 -1.902,-4.579 0,-1.914 0.657,-3.506 1.97,-4.779 1.315,-1.272 2.963,-1.906 4.943,-1.906 0.721,0 1.406,0.079 2.054,0.232 0.648,0.158 1.467,0.441 2.458,0.858 l 0,1.87 c -1.528,-0.886 -3.045,-1.33 -4.548,-1.33 -1.4,0 -2.58,0.477 -3.54,1.431 -0.96,0.954 -1.439,2.124 -1.439,3.512 0,1.454 0.479,2.644 1.439,3.566 0.96,0.923 2.195,1.384 3.704,1.384 0.734,0 1.611,-0.168 2.632,-0.504 l 0.174,-0.054 0,-2.67 -2.466,0 0,-1.629 z"
       clip-path="url(#SVGID_2_)" /><path
       style="fill:#201d1a"
       id="path35"
       d="m 475.11,140.754 c 0.275,0 0.511,0.094 0.706,0.285 0.195,0.187 0.294,0.42 0.294,0.696 0,0.268 -0.099,0.501 -0.294,0.697 -0.195,0.194 -0.431,0.293 -0.706,0.293 -0.257,0 -0.483,-0.101 -0.679,-0.298 -0.195,-0.2 -0.294,-0.43 -0.294,-0.692 0,-0.257 0.099,-0.486 0.294,-0.683 0.196,-0.199 0.422,-0.298 0.679,-0.298 m -0.826,3.547 1.669,0 0,8.437 -1.669,0 0,-8.437 z"
       clip-path="url(#SVGID_2_)" /><path
       style="fill:#201d1a"
       id="path37"
       d="m 483.665,147.666 0,3.587 c 0,0.286 0.097,0.429 0.293,0.429 0.202,0 0.516,-0.147 0.944,-0.447 l 0,1.017 c -0.379,0.243 -0.683,0.411 -0.913,0.499 -0.229,0.089 -0.469,0.134 -0.718,0.134 -0.716,0 -1.137,-0.282 -1.266,-0.844 -0.709,0.55 -1.464,0.824 -2.266,0.824 -0.586,0 -1.074,-0.192 -1.467,-0.583 -0.391,-0.387 -0.585,-0.873 -0.585,-1.462 0,-0.531 0.19,-1.005 0.572,-1.424 0.383,-0.419 0.925,-0.751 1.628,-0.994 l 2.136,-0.736 0,-0.447 c 0,-1.016 -0.507,-1.524 -1.522,-1.524 -0.911,0 -1.796,0.471 -2.659,1.414 l 0,-1.826 c 0.648,-0.763 1.58,-1.146 2.797,-1.146 0.91,0 1.64,0.24 2.192,0.715 0.183,0.155 0.348,0.358 0.494,0.611 0.147,0.253 0.24,0.506 0.281,0.762 0.039,0.252 0.059,0.733 0.059,1.441 m -1.642,3.402 0,-2.505 -1.119,0.433 c -0.568,0.226 -0.97,0.452 -1.205,0.682 -0.235,0.229 -0.354,0.516 -0.354,0.857 0,0.349 0.112,0.632 0.335,0.853 0.224,0.219 0.513,0.332 0.867,0.332 0.532,0.001 1.023,-0.218 1.476,-0.652"
       clip-path="url(#SVGID_2_)" /><path
       style="fill:#201d1a"
       id="path39"
       d="m 492.705,150.766 0,1.65 c -0.837,0.312 -1.656,0.468 -2.457,0.468 -1.32,0 -2.374,-0.392 -3.158,-1.173 -0.786,-0.784 -1.178,-1.832 -1.178,-3.147 0,-1.325 0.381,-2.394 1.146,-3.206 0.764,-0.814 1.769,-1.221 3.016,-1.221 0.434,0 0.823,0.042 1.168,0.123 0.347,0.083 0.773,0.237 1.28,0.464 l 0,1.778 c -0.844,-0.537 -1.626,-0.806 -2.347,-0.806 -0.753,0 -1.37,0.264 -1.852,0.793 -0.483,0.528 -0.725,1.202 -0.725,2.022 0,0.862 0.262,1.546 0.784,2.054 0.523,0.507 1.227,0.762 2.114,0.762 0.641,-0.001 1.378,-0.189 2.209,-0.561"
       clip-path="url(#SVGID_2_)" /><path
       style="fill:#201d1a"
       id="path41"
       d="m 498.638,144.284 c 1.283,0 2.349,0.414 3.2,1.243 0.85,0.827 1.274,1.868 1.274,3.12 0,1.217 -0.431,2.227 -1.293,3.03 -0.861,0.805 -1.947,1.208 -3.255,1.208 -1.266,0 -2.323,-0.41 -3.173,-1.225 -0.85,-0.816 -1.274,-1.835 -1.274,-3.058 0,-1.234 0.43,-2.264 1.289,-3.086 0.859,-0.822 1.935,-1.232 3.232,-1.232 m -0.092,1.503 c -0.801,0 -1.458,0.264 -1.972,0.788 -0.513,0.526 -0.77,1.197 -0.77,2.01 0,0.806 0.264,1.465 0.789,1.975 0.525,0.511 1.202,0.767 2.026,0.767 0.818,0 1.49,-0.261 2.012,-0.776 0.523,-0.517 0.784,-1.178 0.784,-1.987 0,-0.799 -0.272,-1.463 -0.816,-1.989 -0.543,-0.524 -1.228,-0.788 -2.053,-0.788"
       clip-path="url(#SVGID_2_)" /><path
       style="fill:#201d1a"
       id="path43"
       d="m 511.877,146.613 0,6.124 -1.678,0 0,-4.695 c 0,-0.934 -0.125,-1.589 -0.376,-1.958 -0.251,-0.369 -0.688,-0.555 -1.311,-0.555 -0.349,0 -0.668,0.081 -0.958,0.239 -0.29,0.159 -0.623,0.439 -0.995,0.845 l 0,6.124 -1.669,0 0,-8.436 1.669,0 0,1.108 c 0.85,-0.849 1.68,-1.274 2.493,-1.274 1.07,0 1.899,0.509 2.486,1.523 0.892,-1.028 1.824,-1.542 2.796,-1.542 0.82,0 1.493,0.301 2.022,0.898 0.529,0.601 0.792,1.515 0.792,2.742 l 0,4.98 -1.667,0 0,-4.998 c 0,-0.703 -0.145,-1.241 -0.431,-1.613 -0.288,-0.373 -0.7,-0.559 -1.239,-0.559 -0.689,0.001 -1.334,0.348 -1.934,1.047"
       clip-path="url(#SVGID_2_)" /><path
       style="fill:#201d1a"
       id="path45"
       d="m 523.477,144.284 c 1.283,0 2.349,0.414 3.199,1.243 0.85,0.827 1.274,1.868 1.274,3.12 0,1.217 -0.431,2.227 -1.292,3.03 -0.862,0.805 -1.948,1.208 -3.255,1.208 -1.266,0 -2.323,-0.41 -3.172,-1.225 -0.851,-0.816 -1.275,-1.835 -1.275,-3.058 0,-1.234 0.429,-2.264 1.288,-3.086 0.859,-0.822 1.936,-1.232 3.233,-1.232 m -0.092,1.503 c -0.801,0 -1.458,0.264 -1.971,0.788 -0.514,0.526 -0.771,1.197 -0.771,2.01 0,0.806 0.263,1.465 0.788,1.975 0.526,0.511 1.202,0.767 2.027,0.767 0.82,0 1.49,-0.261 2.012,-0.776 0.523,-0.517 0.784,-1.178 0.784,-1.987 0,-0.799 -0.271,-1.463 -0.816,-1.989 -0.544,-0.524 -1.229,-0.788 -2.053,-0.788"
       clip-path="url(#SVGID_2_)" /><path
       style="fill:#201d1a"
       id="path47"
       d="m 535.272,139.927 5.538,0 c 1.321,0 2.358,0.318 3.113,0.955 0.754,0.634 1.131,1.387 1.131,2.253 0,1.11 -0.583,1.965 -1.751,2.556 0.881,0.233 1.555,0.643 2.023,1.229 0.468,0.588 0.7,1.273 0.7,2.057 0,1.113 -0.381,2.018 -1.145,2.715 -0.765,0.698 -1.889,1.046 -3.374,1.046 l -6.235,0 0,-12.811 z m 3.191,2.347 0,2.741 1.668,0 c 0.513,0 0.915,-0.129 1.202,-0.395 0.287,-0.261 0.431,-0.591 0.431,-0.989 0,-0.392 -0.144,-0.715 -0.431,-0.972 -0.287,-0.258 -0.689,-0.386 -1.202,-0.386 l -1.668,0 z m 0,5.089 0,3.026 1.797,0 c 0.849,0 1.46,-0.119 1.834,-0.354 0.372,-0.235 0.558,-0.643 0.558,-1.223 0,-0.446 -0.176,-0.8 -0.53,-1.059 -0.355,-0.26 -0.829,-0.39 -1.421,-0.39 l -2.238,0 z"
       clip-path="url(#SVGID_2_)" /><path
       style="fill:#201d1a"
       id="path49"
       d="m 550.877,144.082 0,2.476 0.037,0 c 0.788,-1.775 1.708,-2.66 2.759,-2.66 0.502,0 1.105,0.263 1.807,0.789 l -0.751,2.413 c -0.674,-0.431 -1.211,-0.643 -1.614,-0.643 -0.63,0 -1.16,0.39 -1.591,1.171 -0.432,0.779 -0.647,1.233 -0.647,1.362 l 0,3.747 -2.722,0 0,-8.655 2.722,0 z"
       clip-path="url(#SVGID_2_)" /><path
       style="fill:#201d1a"
       id="path51"
       d="m 560.493,143.898 c 1.358,0 2.508,0.398 3.452,1.192 0.945,0.798 1.418,1.904 1.418,3.324 0,1.425 -0.48,2.531 -1.44,3.312 -0.96,0.785 -2.104,1.177 -3.43,1.177 -1.436,0 -2.611,-0.419 -3.525,-1.252 -0.913,-0.836 -1.371,-1.923 -1.371,-3.255 0,-1.36 0.466,-2.448 1.398,-3.27 0.933,-0.817 2.099,-1.228 3.498,-1.228 m 0,7.389 c 1.303,0 1.953,-0.981 1.953,-2.947 0,-1.88 -0.65,-2.82 -1.953,-2.82 -0.623,0 -1.111,0.248 -1.462,0.746 -0.351,0.495 -0.527,1.205 -0.527,2.13 0,1.929 0.664,2.891 1.989,2.891"
       clip-path="url(#SVGID_2_)" /><path
       style="fill:#201d1a"
       id="path53"
       d="m 575.898,139.927 0,12.811 -2.724,0 0,-0.697 c -0.696,0.573 -1.497,0.863 -2.402,0.863 -1.156,0 -2.12,-0.429 -2.893,-1.287 -0.773,-0.854 -1.16,-1.93 -1.16,-3.22 0,-1.322 0.393,-2.402 1.178,-3.242 0.786,-0.837 1.793,-1.256 3.022,-1.256 0.763,0 1.515,0.183 2.255,0.549 l 0,-4.521 2.724,0 z m -2.724,10.435 0,-4.137 c -0.495,-0.333 -1.002,-0.501 -1.522,-0.501 -0.686,0 -1.219,0.237 -1.601,0.714 -0.381,0.478 -0.573,1.145 -0.573,2.007 0,0.795 0.191,1.431 0.57,1.913 0.377,0.479 0.883,0.718 1.512,0.718 0.556,0 1.094,-0.237 1.614,-0.714"
       clip-path="url(#SVGID_2_)" /><path
       style="fill:#201d1a"
       id="path55"
       d="m 582.6,143.898 c 1.357,0 2.508,0.398 3.453,1.192 0.944,0.798 1.416,1.904 1.416,3.324 0,1.425 -0.479,2.531 -1.439,3.312 -0.961,0.785 -2.103,1.177 -3.43,1.177 -1.436,0 -2.61,-0.419 -3.524,-1.252 -0.915,-0.836 -1.372,-1.923 -1.372,-3.255 0,-1.36 0.466,-2.448 1.398,-3.27 0.933,-0.817 2.097,-1.228 3.498,-1.228 m 0,7.389 c 1.302,0 1.953,-0.981 1.953,-2.947 0,-1.88 -0.651,-2.82 -1.953,-2.82 -0.623,0 -1.111,0.248 -1.462,0.746 -0.351,0.495 -0.527,1.205 -0.527,2.13 -10e-4,1.929 0.662,2.891 1.989,2.891"
       clip-path="url(#SVGID_2_)" /><rect
       style="fill:#201d1a"
       id="rect57"
       height="12.81"
       width="2.724"
       clip-path="url(#SVGID_2_)"
       y="139.927"
       x="589.34802" /><path
       style="fill:#201d1a"
       id="path59"
       d="m 594.29,141.267 c 0,-0.417 0.146,-0.771 0.44,-1.063 0.294,-0.294 0.645,-0.44 1.054,-0.44 0.417,0 0.771,0.146 1.064,0.44 0.293,0.293 0.44,0.646 0.44,1.063 0,0.409 -0.147,0.761 -0.44,1.06 -0.293,0.295 -0.647,0.444 -1.064,0.444 -0.409,0 -0.76,-0.149 -1.054,-0.444 -0.294,-0.299 -0.44,-0.651 -0.44,-1.06 m 2.871,11.47 -2.724,0 0,-8.655 2.724,0 0,8.655 z"
       clip-path="url(#SVGID_2_)" /><path
       style="fill:#201d1a"
       id="path61"
       d="m 602.193,144.082 0,1.228 c 0.801,-0.941 1.739,-1.412 2.815,-1.412 0.898,0 1.649,0.288 2.251,0.863 0.602,0.575 0.903,1.398 0.903,2.468 l 0,5.508 -2.724,0 0,-5.278 c 0,-1.156 -0.449,-1.733 -1.347,-1.733 -0.642,0 -1.274,0.474 -1.898,1.428 l 0,5.584 -2.723,0 0,-8.655 2.723,0 z"
       clip-path="url(#SVGID_2_)" /><path
       style="fill:#201d1a"
       id="path63"
       d="m 610.326,141.267 c 0,-0.417 0.147,-0.771 0.441,-1.063 0.293,-0.294 0.645,-0.44 1.054,-0.44 0.416,0 0.771,0.146 1.064,0.44 0.294,0.293 0.439,0.646 0.439,1.063 0,0.409 -0.145,0.761 -0.439,1.06 -0.293,0.295 -0.648,0.444 -1.064,0.444 -0.409,0 -0.761,-0.149 -1.054,-0.444 -0.294,-0.299 -0.441,-0.651 -0.441,-1.06 m 2.871,11.47 -2.724,0 0,-8.655 2.724,0 0,8.655 z"
       clip-path="url(#SVGID_2_)" /></g></svg>