<svg id="Layer_1" data-name="Layer 1" xmlns="http://www.w3.org/2000/svg" viewBox="0 0 864 164.814">
  <g>
    <g id="type">
      <polygon id="type_PathItem_" data-name="type &lt;PathItem&gt;" points="213.306 121.364 213.306 43.45 265.271 43.45 265.271 59.32 229.582 59.32 229.582 73.738 262.678 73.738 262.678 89.609 229.582 89.609 229.582 105.493 265.271 105.493 265.271 121.364 213.306 121.364" style="fill: #08505a"/>
      <polygon id="type_PathItem_2" data-name="type &lt;PathItem&gt;" points="276.514 121.364 276.514 43.45 328.479 43.45 328.479 59.32 292.79 59.32 292.79 74.262 325.885 74.262 325.885 90.133 292.79 90.133 292.79 121.364 276.514 121.364" style="fill: #08505a"/>
      <rect id="type_PathItem_3" data-name="type &lt;PathItem&gt;" x="339.7217" y="43.4497" width="16.2766" height="77.9144" style="fill: #08505a"/>
      <path id="type_CompoundPathItem_" data-name="type &lt;CompoundPathItem&gt;" d="M441.8565,82.4072c0-23.1716,16.9825-40.2156,39.7-40.2156a37.6665,37.6665,0,0,1,36.171,25.1765h-6.2859a32.408,32.408,0,0,0-30.106-19.4948c-18.9677,0-33.6343,14.9271-33.6343,34.5339s14.6666,34.5339,33.6343,34.5339a32.41,32.41,0,0,0,30.106-19.4948h6.2859a37.6654,37.6654,0,0,1-36.171,25.1754C458.839,122.6217,441.8565,105.5778,441.8565,82.4072Z" style="fill: #08505a"/>
      <path id="type_CompoundPathItem_2" data-name="type &lt;CompoundPathItem&gt;" d="M539.1211,49.0982V78.2855H578.38v5.6806H539.1211v31.7491h41.7957v5.6817h-47.64V43.4176h47.64v5.6806Z" style="fill: #08505a"/>
      <path id="type_CompoundPathItem_3" data-name="type &lt;CompoundPathItem&gt;" d="M657.56,43.4176v77.9793h-7.83l-48.4123-70.85.4416,38.21v32.64h-5.8448V43.4176h7.7191l48.5222,70.85-.4411-38.21v-32.64Z" style="fill: #08505a"/>
      <path id="type_CompoundPathItem_4" data-name="type &lt;CompoundPathItem&gt;" d="M729.7925,49.0982H703.5461v72.2987h-5.8448V49.0982H671.4555V43.4176h58.337Z" style="fill: #08505a"/>
      <path id="type_CompoundPathItem_5" data-name="type &lt;CompoundPathItem&gt;" d="M767.9488,90.2047H750.194v31.1922h-5.9553V43.4176h29.2238c17.3137,0,26.0255,10.1374,26.0255,23.2826,0,12.9222-8.2707,22.6136-24.2611,23.3936l26.6875,31.3031h-7.389ZM750.194,84.8581h22.8273c14.226,0,20.6218-8.2435,20.6218-18.0469,0-9.9144-6.3958-17.713-20.6218-17.713H750.194Z" style="fill: #08505a"/>
      <path id="type_CompoundPathItem_6" data-name="type &lt;CompoundPathItem&gt;" d="M822.2049,49.0982V78.2855h39.2589v5.6806H822.2049v31.7491H864v5.6817H816.36V43.4176H864v5.6806Z" style="fill: #08505a"/>
      <path id="type_PathItem_4" data-name="type &lt;PathItem&gt;" d="M412.9086,66.3737c-1.957-5.733-6.75-8.52-14.6531-8.52-7.9938,0-12.7665,3.1848-12.7665,8.5185,0,3.1862,1.9851,4.6111,14.393,7.3128C417.58,77.6242,430.1,81.6737,430.1,98.0222c0,16.9938-14.7435,24.6-29.3551,24.6-25.7578,0-31.894-17.0294-33.3516-25.176h16.6631c2.2979,6.6413,7.3576,9.5145,16.5855,9.5145,4.8847,0,13.0785-1.093,13.0785-8.4148,0-4.6126-3.7183-5.6545-16.616-8.5562l-1.0092-.2267c-13.6-3.03-26.8831-7.3084-26.8831-23.0767,0-16.8294,15.0013-24.4942,28.94-24.4942,17.0739,0,28.3659,8.4,30.9786,23.0463l.38,2.13H413.2476Z" style="fill: #08505a"/>
    </g>
    <g id="logoMark">
      <path id="logoMark_PathItem_" data-name="logoMark &lt;PathItem&gt;" d="M89.6228,6.2506C75.8347,13.1447,62.0465,26.9328,41.3644,26.9328,13.7881,26.9328,0,54.509,0,82.0853c0,9.5491,2.6484,16.45,6.9132,21.7343-.007-.35-.0191-.6987-.0191-1.0522,0-20.6821,6.894-41.3643,34.47-55.1524C74.5705,31.0119,89.0255,20.0387,110.305,20.0387c13.7881,0,41.3643,0,41.3643,34.47,0,24.8569-13.7881,31.2154-13.7881,62.0466,0,17.5419-14.8837,40.0352-40.434,46.4637a44.0042,44.0042,0,0,0,12.8578,1.7947c20.6821,0,41.3643-20.6822,41.3643-55.1525,0-27.5762,13.7881-34.47,13.7881-55.1525C165.4574,6.2506,122.829-10.3525,89.6228,6.2506Z" style="fill: #08505a"/>
      <path id="logoMark_PathItem_2" data-name="logoMark &lt;PathItem&gt;" d="M6.9132,103.82c.8127,40.66,48.4749,60.9944,75.8155,60.9944a60.1454,60.1454,0,0,0,14.7185-1.7947c-17.5746-5.3076-25.2659-21.3231-42.2947-32.6756C40.2,120.3752,18.0433,117.6106,6.9132,103.82Z" style="fill: #37a5a5"/>
      <path id="logoMark_CompoundPathItem_" data-name="logoMark &lt;CompoundPathItem&gt;" d="M137.8812,116.5556c0-30.8312,13.7881-37.19,13.7881-62.0466,0-34.47-27.5762-34.47-41.3643-34.47-21.28,0-35.7345,10.9732-68.9406,27.5763-27.5763,13.7881-34.47,34.47-34.47,55.1524,0,.3535.0121.7017.0191,1.0522,11.13,13.791,33.2866,16.5556,48.2393,26.5241,17.0288,11.3525,24.72,27.368,42.2947,32.6756C122.9975,156.5908,137.8812,134.0975,137.8812,116.5556Zm-55.1525,9.192a43.6624,43.6624,0,1,1,43.6624-43.6623A43.6624,43.6624,0,0,1,82.7287,125.7476Z" style="fill: #b44b19"/>
    </g>
  </g>
</svg>
